<svg id="visual" viewBox="0 0 960 540" width="960" height="540" xmlns="http://www.w3.org/2000/svg" xmlns:xlink="http://www.w3.org/1999/xlink" version="1.1"><rect x="0" y="0" width="960" height="540" fill="#737373"></rect><path d="M0 377L137 386L274 326L411 392L549 332L686 352L823 390L960 399L960 541L823 541L686 541L549 541L411 541L274 541L137 541L0 541Z" fill="#001122"></path><path d="M0 413L137 359L274 362L411 364L549 407L686 407L823 417L960 425L960 541L823 541L686 541L549 541L411 541L274 541L137 541L0 541Z" fill="#620039"></path><path d="M0 414L137 447L274 397L411 422L549 417L686 434L823 398L960 459L960 541L823 541L686 541L549 541L411 541L274 541L137 541L0 541Z" fill="#871400"></path><path d="M0 475L137 452L274 481L411 443L549 485L686 474L823 456L960 482L960 541L823 541L686 541L549 541L411 541L274 541L137 541L0 541Z" fill="#620039"></path><path d="M0 494L137 513L274 492L411 476L549 483L686 483L823 516L960 491L960 541L823 541L686 541L549 541L411 541L274 541L137 541L0 541Z" fill="#001122"></path></svg>